# xmcd
#
# Track frame offsets:
#	150
#	11881
#	32431
#	35526
#	38818
#	50804
#	57823
#	67667
#	80133
#	91763
#
# Disc length: 1313 seconds
#
# Revision: 1
# Processed by: cddbd v1.5.2PL0 Copyright (c) Steve Scherf et al.
# Submitted via: audiograbber 1.83.01
#
DISCID=78051f0a
DTITLE=Mittelschule Markt Piesting - Weihnachten Christmas 2013
DYEAR=2013
DGENRE=Weihnachten
TTITLE0=Oh du Fröhliche
TTITLE1=i wish it could be christmas everxday
TTITLE2=Adventjodler
TTITLE3=we wish you a merry christmas
TTITLE4=run Rudolph run
TTITLE5=Maria durch ein Dornwald ging
TTITLE6=god rest ye merry gentlemen
TTITLE7=Alle Jahre wieder
TTITLE8=Leise rieselt der Schnee
TTITLE9=Oh Tannenbaum
EXTD=Weihnachten Christmas 2013\nin der neuen Niederösterreichischen Mittelschu
EXTD=le\nMarkt Piesting\nCoverbild Iris Amanda Frank\n1b der NNÖMS MArkt Piesti
EXTD=ng\nproduced im Dezember 2013\nby SMS\nWolf Hecher and Richi Stevenson
EXTT0=
EXTT1=
EXTT2=
EXTT3=
EXTT4=
EXTT5=
EXTT6=
EXTT7=
EXTT8=
EXTT9=
PLAYORDER=
